<svg height="512pt" viewBox="0 -64 512 511" width="512pt" xmlns="http://www.w3.org/2000/svg"><path d="m321.335938 192.234375c0-30.863281-21.519532-56.777344-50.335938-63.578125v127.152344c28.816406-6.796875 50.335938-32.710938 50.335938-63.574219zm0 0"/><path d="m431.664062 152.066406v80.332032c0 13.878906 11.292969 25.167968 25.171876 25.167968h55.164062v-130.667968h-55.164062c-13.878907 0-25.171876 11.292968-25.171876 25.167968zm0 0"/><path d="m190.664062 192.234375c0 30.863281 21.519532 56.777344 50.335938 63.574219v-127.152344c-28.816406 6.800781-50.335938 32.714844-50.335938 63.578125zm0 0"/><path d="m456.835938.5h-185.835938v97.585938c45.464844 7.214843 80.335938 46.683593 80.335938 94.148437s-34.871094 86.933594-80.335938 94.148437v97.582032h185.835938c30.417968 0 55.164062-24.746094 55.164062-55.164063v-41.234375h-55.164062c-30.421876 0-55.171876-24.746094-55.171876-55.167968v-80.332032c0-30.417968 24.75-55.167968 55.171876-55.167968h55.164062v-41.230469c0-30.421875-24.746094-55.167969-55.164062-55.167969zm0 0"/><path d="m0 55.667969v41.230469h55.164062c30.421876 0 55.171876 24.75 55.171876 55.167968v80.332032c0 30.421874-24.75 55.167968-55.171876 55.167968h-55.164062v41.234375c0 30.417969 24.746094 55.164063 55.164062 55.164063h185.835938v-97.582032c-45.464844-7.21875-80.335938-46.6875-80.335938-94.148437 0-47.464844 34.871094-86.933594 80.335938-94.148437v-97.585938h-185.835938c-30.417968 0-55.164062 24.746094-55.164062 55.167969zm0 0"/><path d="m80.335938 232.398438v-80.332032c0-13.875-11.292969-25.167968-25.171876-25.167968h-55.164062v130.667968h55.164062c13.878907 0 25.171876-11.289062 25.171876-25.167968zm0 0"/></svg>